<svg width="252" height="37" viewBox="0 0 252 37" fill="none" xmlns="http://www.w3.org/2000/svg">
<path d="M17.7969 8.9375C18.4141 8.9375 18.9434 8.96289 19.3848 9.01367C19.8262 9.06445 20.1973 9.14062 20.498 9.24219C20.8027 9.33984 21.0449 9.46289 21.2246 9.61133C21.4043 9.75977 21.543 9.92969 21.6406 10.1211C21.7383 10.3086 21.8008 10.5195 21.8281 10.7539C21.8594 10.9883 21.875 11.2422 21.875 11.5156C21.875 11.7891 21.8496 12.0469 21.7988 12.2891C21.752 12.5273 21.666 12.7461 21.541 12.9453C21.416 13.1445 21.2461 13.3223 21.0312 13.4785C20.8164 13.6348 20.543 13.7676 20.2109 13.877C19.8789 13.9863 19.4785 14.0684 19.0098 14.123C18.5449 14.1816 18 14.2109 17.375 14.2109H15.875C15.3125 14.2109 14.8203 14.1895 14.3984 14.1465C13.9766 14.1035 13.6133 14.0391 13.3086 13.9531C13.0039 13.8633 12.752 13.752 12.5527 13.6191C12.3535 13.4824 12.1934 13.3242 12.0723 13.1445C11.9551 12.9609 11.873 12.7539 11.8262 12.5234C11.7793 12.2891 11.7559 12.0312 11.7559 11.75H12.8809C12.8809 12.1016 12.9316 12.377 13.0332 12.5762C13.1348 12.7754 13.3027 12.9258 13.5371 13.0273C13.7715 13.125 14.0781 13.1875 14.457 13.2148C14.8398 13.2383 15.3125 13.25 15.875 13.25H17.375C18.0312 13.25 18.5762 13.2188 19.0098 13.1562C19.4434 13.0938 19.7891 12.9941 20.0469 12.8574C20.3047 12.7207 20.4863 12.543 20.5918 12.3242C20.6973 12.1016 20.75 11.832 20.75 11.5156C20.75 11.1992 20.7129 10.9355 20.6387 10.7246C20.5684 10.5137 20.4258 10.3457 20.2109 10.2207C20 10.0957 19.7012 10.0078 19.3145 9.95703C18.9277 9.90234 18.4219 9.875 17.7969 9.875H16.25C15.5625 9.875 14.9727 9.84961 14.4805 9.79883C13.9922 9.74805 13.582 9.67578 13.25 9.58203C12.918 9.48438 12.6523 9.36523 12.4531 9.22461C12.2539 9.08008 12.1016 8.91602 11.9961 8.73242C11.8945 8.54883 11.8281 8.3457 11.7969 8.12305C11.7656 7.89648 11.75 7.65234 11.75 7.39062C11.75 7.11719 11.7734 6.86328 11.8203 6.62891C11.8711 6.39453 11.9629 6.18359 12.0957 5.99609C12.2285 5.80469 12.4102 5.63477 12.6406 5.48633C12.8711 5.33789 13.166 5.21484 13.5254 5.11719C13.8887 5.01562 14.3242 4.93945 14.832 4.88867C15.3398 4.83789 15.9375 4.8125 16.625 4.8125H17.75C18.3125 4.8125 18.8047 4.83398 19.2266 4.87695C19.6484 4.91602 20.0117 4.98047 20.3164 5.07031C20.6211 5.15625 20.873 5.26562 21.0723 5.39844C21.2754 5.52734 21.4355 5.68359 21.5527 5.86719C21.6738 6.04688 21.7578 6.25195 21.8047 6.48242C21.8516 6.71289 21.875 6.96875 21.875 7.25H20.75C20.75 6.89844 20.6992 6.62305 20.5977 6.42383C20.4961 6.22461 20.3281 6.07617 20.0938 5.97852C19.8594 5.87695 19.5508 5.81445 19.168 5.79102C18.7852 5.76367 18.3125 5.75 17.75 5.75H16.625C15.875 5.75 15.2578 5.77734 14.7734 5.83203C14.2891 5.88281 13.9062 5.9707 13.625 6.0957C13.3438 6.2207 13.1484 6.38867 13.0391 6.59961C12.9297 6.81055 12.875 7.07422 12.875 7.39062C12.875 7.58594 12.8887 7.75977 12.916 7.91211C12.9434 8.06445 12.998 8.19922 13.0801 8.31641C13.166 8.42969 13.2852 8.52539 13.4375 8.60352C13.5898 8.68164 13.791 8.74609 14.041 8.79688C14.291 8.84766 14.5957 8.88477 14.9551 8.9082C15.3184 8.92773 15.75 8.9375 16.25 8.9375H17.7969ZM32.5625 11.9375H25.4375L24.3125 14H23L28.25 5H29.75L35 14H33.6875L32.5625 11.9375ZM32 11L29 5.75L26 11H32ZM37.625 5.75V14H36.5V5H38.375L43.6191 12.875L48.8633 5H50.6562V14H49.5312V5.87305L44.1875 14H43.0508L37.625 5.75ZM63.4121 5V9.5C63.4121 10.0312 63.4043 10.5156 63.3887 10.9531C63.377 11.3906 63.332 11.7832 63.2539 12.1309C63.1797 12.4785 63.0605 12.7812 62.8965 13.0391C62.7324 13.2969 62.498 13.5117 62.1934 13.6836C61.8887 13.8516 61.5 13.9766 61.0273 14.0586C60.5586 14.1445 59.9805 14.1875 59.293 14.1875H56.6562C55.9688 14.1875 55.3887 14.1445 54.916 14.0586C54.4473 13.9766 54.0605 13.8516 53.7559 13.6836C53.4512 13.5117 53.2148 13.2969 53.0469 13.0391C52.8828 12.7812 52.7617 12.4785 52.6836 12.1309C52.6094 11.7832 52.5664 11.3906 52.5547 10.9531C52.543 10.5156 52.5371 10.0312 52.5371 9.5V5H53.6621V9.5C53.6621 10.0625 53.666 10.5469 53.6738 10.9531C53.6855 11.3555 53.7188 11.6953 53.7734 11.9727C53.8281 12.25 53.9141 12.4727 54.0312 12.6406C54.1523 12.8086 54.3242 12.9375 54.5469 13.0273C54.7695 13.1172 55.0508 13.1777 55.3906 13.209C55.7344 13.2363 56.1562 13.25 56.6562 13.25H59.293C59.7891 13.25 60.209 13.2363 60.5527 13.209C60.8965 13.1777 61.1777 13.1172 61.3965 13.0273C61.6191 12.9375 61.791 12.8086 61.9121 12.6406C62.0332 12.4727 62.1211 12.25 62.1758 11.9727C62.2344 11.6953 62.2676 11.3555 62.2754 10.9531C62.2832 10.5469 62.2871 10.0625 62.2871 9.5L62.2812 5H63.4121ZM65.293 14V5H74.293V5.9375H66.418V8.9375H73.918V9.875H66.418V13.0625H74.293V14H65.293ZM75.793 14V5H76.918V13.0625H84.043V14H75.793Z" fill="#22D3EE"/>
<path d="M6.79688 20.9375C7.41406 20.9375 7.94336 20.9629 8.38477 21.0137C8.82617 21.0645 9.19727 21.1406 9.49805 21.2422C9.80273 21.3398 10.0449 21.4629 10.2246 21.6113C10.4043 21.7598 10.543 21.9297 10.6406 22.1211C10.7383 22.3086 10.8008 22.5195 10.8281 22.7539C10.8594 22.9883 10.875 23.2422 10.875 23.5156C10.875 23.7891 10.8496 24.0469 10.7988 24.2891C10.752 24.5273 10.666 24.7461 10.541 24.9453C10.416 25.1445 10.2461 25.3223 10.0312 25.4785C9.81641 25.6348 9.54297 25.7676 9.21094 25.877C8.87891 25.9863 8.47852 26.0684 8.00977 26.123C7.54492 26.1816 7 26.2109 6.375 26.2109H4.875C4.3125 26.2109 3.82031 26.1895 3.39844 26.1465C2.97656 26.1035 2.61328 26.0391 2.30859 25.9531C2.00391 25.8633 1.75195 25.752 1.55273 25.6191C1.35352 25.4824 1.19336 25.3242 1.07227 25.1445C0.955078 24.9609 0.873047 24.7539 0.826172 24.5234C0.779297 24.2891 0.755859 24.0312 0.755859 23.75H1.88086C1.88086 24.1016 1.93164 24.377 2.0332 24.5762C2.13477 24.7754 2.30273 24.9258 2.53711 25.0273C2.77148 25.125 3.07812 25.1875 3.45703 25.2148C3.83984 25.2383 4.3125 25.25 4.875 25.25H6.375C7.03125 25.25 7.57617 25.2188 8.00977 25.1562C8.44336 25.0938 8.78906 24.9941 9.04688 24.8574C9.30469 24.7207 9.48633 24.543 9.5918 24.3242C9.69727 24.1016 9.75 23.832 9.75 23.5156C9.75 23.1992 9.71289 22.9355 9.63867 22.7246C9.56836 22.5137 9.42578 22.3457 9.21094 22.2207C9 22.0957 8.70117 22.0078 8.31445 21.957C7.92773 21.9023 7.42188 21.875 6.79688 21.875H5.25C4.5625 21.875 3.97266 21.8496 3.48047 21.7988C2.99219 21.748 2.58203 21.6758 2.25 21.582C1.91797 21.4844 1.65234 21.3652 1.45312 21.2246C1.25391 21.0801 1.10156 20.916 0.996094 20.7324C0.894531 20.5488 0.828125 20.3457 0.796875 20.123C0.765625 19.8965 0.75 19.6523 0.75 19.3906C0.75 19.1172 0.773438 18.8633 0.820312 18.6289C0.871094 18.3945 0.962891 18.1836 1.0957 17.9961C1.22852 17.8047 1.41016 17.6348 1.64062 17.4863C1.87109 17.3379 2.16602 17.2148 2.52539 17.1172C2.88867 17.0156 3.32422 16.9395 3.83203 16.8887C4.33984 16.8379 4.9375 16.8125 5.625 16.8125H6.75C7.3125 16.8125 7.80469 16.834 8.22656 16.877C8.64844 16.916 9.01172 16.9805 9.31641 17.0703C9.62109 17.1562 9.87305 17.2656 10.0723 17.3984C10.2754 17.5273 10.4355 17.6836 10.5527 17.8672C10.6738 18.0469 10.7578 18.252 10.8047 18.4824C10.8516 18.7129 10.875 18.9688 10.875 19.25H9.75C9.75 18.8984 9.69922 18.623 9.59766 18.4238C9.49609 18.2246 9.32812 18.0762 9.09375 17.9785C8.85938 17.877 8.55078 17.8145 8.16797 17.791C7.78516 17.7637 7.3125 17.75 6.75 17.75H5.625C4.875 17.75 4.25781 17.7773 3.77344 17.832C3.28906 17.8828 2.90625 17.9707 2.625 18.0957C2.34375 18.2207 2.14844 18.3887 2.03906 18.5996C1.92969 18.8105 1.875 19.0742 1.875 19.3906C1.875 19.5859 1.88867 19.7598 1.91602 19.9121C1.94336 20.0645 1.99805 20.1992 2.08008 20.3164C2.16602 20.4297 2.28516 20.5254 2.4375 20.6035C2.58984 20.6816 2.79102 20.7461 3.04102 20.7969C3.29102 20.8477 3.5957 20.8848 3.95508 20.9082C4.31836 20.9277 4.75 20.9375 5.25 20.9375H6.79688ZM23.2559 17V21.5C23.2559 22.0312 23.248 22.5156 23.2324 22.9531C23.2207 23.3906 23.1758 23.7832 23.0977 24.1309C23.0234 24.4785 22.9043 24.7812 22.7402 25.0391C22.5762 25.2969 22.3418 25.5117 22.0371 25.6836C21.7324 25.8516 21.3438 25.9766 20.8711 26.0586C20.4023 26.1445 19.8242 26.1875 19.1367 26.1875H16.5C15.8125 26.1875 15.2324 26.1445 14.7598 26.0586C14.291 25.9766 13.9043 25.8516 13.5996 25.6836C13.2949 25.5117 13.0586 25.2969 12.8906 25.0391C12.7266 24.7812 12.6055 24.4785 12.5273 24.1309C12.4531 23.7832 12.4102 23.3906 12.3984 22.9531C12.3867 22.5156 12.3809 22.0312 12.3809 21.5V17H13.5059V21.5C13.5059 22.0625 13.5098 22.5469 13.5176 22.9531C13.5293 23.3555 13.5625 23.6953 13.6172 23.9727C13.6719 24.25 13.7578 24.4727 13.875 24.6406C13.9961 24.8086 14.168 24.9375 14.3906 25.0273C14.6133 25.1172 14.8945 25.1777 15.2344 25.209C15.5781 25.2363 16 25.25 16.5 25.25H19.1367C19.6328 25.25 20.0527 25.2363 20.3965 25.209C20.7402 25.1777 21.0215 25.1172 21.2402 25.0273C21.4629 24.9375 21.6348 24.8086 21.7559 24.6406C21.877 24.4727 21.9648 24.25 22.0195 23.9727C22.0781 23.6953 22.1113 23.3555 22.1191 22.9531C22.127 22.5469 22.1309 22.0625 22.1309 21.5L22.125 17H23.2559ZM26.2617 26H25.1367V17H27.1113L35.3613 24.875V17H36.4863V26H34.9863L26.2617 17.9375V26ZM45.4863 25.0625C45.9824 25.0625 46.4023 25.0488 46.7461 25.0215C47.0898 24.9941 47.373 24.9395 47.5957 24.8574C47.8184 24.7715 47.9902 24.6484 48.1113 24.4883C48.2324 24.3281 48.3203 24.1172 48.375 23.8555C48.4336 23.5898 48.4668 23.2656 48.4746 22.8828C48.4863 22.4961 48.4922 22.0352 48.4922 21.5C48.4922 20.9648 48.4863 20.5059 48.4746 20.123C48.4668 19.7363 48.4336 19.4121 48.375 19.1504C48.3203 18.8848 48.2324 18.6719 48.1113 18.5117C47.9902 18.3516 47.8184 18.2305 47.5957 18.1484C47.373 18.0625 47.0898 18.0059 46.7461 17.9785C46.4062 17.9512 45.9863 17.9375 45.4863 17.9375H39.8672V25.0625H45.4863ZM38.7422 26V17H45.4863C46.1738 17 46.752 17.041 47.2207 17.123C47.6934 17.2012 48.082 17.3223 48.3867 17.4863C48.6953 17.6504 48.9316 17.8555 49.0957 18.1016C49.2637 18.3477 49.3848 18.6387 49.459 18.9746C49.5371 19.3066 49.582 19.6836 49.5938 20.1055C49.6094 20.5234 49.6172 20.9883 49.6172 21.5C49.6172 22.0117 49.6094 22.4785 49.5938 22.9004C49.582 23.3184 49.5371 23.6953 49.459 24.0312C49.3848 24.3633 49.2637 24.6523 49.0957 24.8984C48.9316 25.1445 48.6953 25.3496 48.3867 25.5137C48.082 25.6777 47.6934 25.8008 47.2207 25.8828C46.752 25.9609 46.1738 26 45.4863 26H38.7422ZM51.4922 26V17H58.998C59.5605 17 60.0137 17.0469 60.3574 17.1406C60.7012 17.2305 60.9648 17.3652 61.1484 17.5449C61.3359 17.7207 61.4609 17.9414 61.5234 18.207C61.5859 18.4727 61.6172 18.7773 61.6172 19.1211C61.6172 19.3711 61.5957 19.5918 61.5527 19.7832C61.5098 19.9746 61.4531 20.1406 61.3828 20.2812C61.3125 20.4219 61.2324 20.541 61.1426 20.6387C61.0527 20.7324 60.9609 20.8105 60.8672 20.873C60.6484 21.0215 60.3984 21.1055 60.1172 21.125C60.4688 21.1445 60.7812 21.2305 61.0547 21.3828C61.1719 21.4492 61.2852 21.5332 61.3945 21.6348C61.5078 21.7324 61.6074 21.8555 61.6934 22.0039C61.7832 22.1484 61.8555 22.3203 61.9102 22.5195C61.9648 22.7148 61.9922 22.9414 61.9922 23.1992C61.9922 23.5117 61.9766 23.7988 61.9453 24.0605C61.918 24.3184 61.8594 24.5508 61.7695 24.7578C61.6797 24.9648 61.5508 25.1465 61.3828 25.3027C61.2148 25.459 60.9902 25.5898 60.709 25.6953C60.4316 25.7969 60.0898 25.873 59.6836 25.9238C59.2812 25.9746 58.7988 26 58.2363 26H51.4922ZM57.8613 25.0625C58.2988 25.0625 58.6777 25.0566 58.998 25.0449C59.3184 25.0293 59.5898 25 59.8125 24.957C60.0352 24.9102 60.2148 24.8457 60.3516 24.7637C60.4883 24.6777 60.5938 24.5664 60.668 24.4297C60.7461 24.2891 60.7988 24.1191 60.8262 23.9199C60.8535 23.7207 60.8672 23.4805 60.8672 23.1992C60.8672 22.9805 60.8535 22.791 60.8262 22.6309C60.7988 22.4668 60.7461 22.3301 60.668 22.2207C60.5938 22.1074 60.4883 22.0176 60.3516 21.9512C60.2148 21.8809 60.0352 21.8262 59.8125 21.7871C59.5898 21.748 59.3184 21.7227 58.998 21.7109C58.6777 21.6953 58.2988 21.6875 57.8613 21.6875H52.6172V25.0625H57.8613ZM57.8613 20.75C58.2441 20.75 58.5742 20.7422 58.8516 20.7266C59.1289 20.7109 59.3652 20.6816 59.5605 20.6387C59.7559 20.5957 59.9141 20.5371 60.0352 20.4629C60.1562 20.3848 60.25 20.2852 60.3164 20.1641C60.3867 20.043 60.4336 19.8984 60.457 19.7305C60.4805 19.5586 60.4922 19.3555 60.4922 19.1211C60.4922 18.8711 60.4648 18.668 60.4102 18.5117C60.3555 18.3555 60.2578 18.2363 60.1172 18.1543C59.9766 18.0684 59.7852 18.0117 59.543 17.9844C59.3047 17.9531 58.998 17.9375 58.623 17.9375H52.6172V20.75H57.8613ZM63.8672 26V17H72.8672V17.9375H64.9922V20.9375H72.4922V21.875H64.9922V25.0625H72.8672V26H63.8672ZM84.6797 26H83.5547V24.3125C83.5547 24.0391 83.5488 23.8047 83.5371 23.6094C83.5293 23.4102 83.4961 23.2402 83.4375 23.0996C83.3828 22.959 83.2949 22.8457 83.1738 22.7598C83.0527 22.6738 82.8809 22.6074 82.6582 22.5605C82.4355 22.5137 82.1523 22.4824 81.8086 22.4668C81.4688 22.4473 81.0488 22.4375 80.5488 22.4375H75.4922V26H74.3672V17H80.7363C81.4238 17 82.002 17.0254 82.4707 17.0762C82.9434 17.123 83.332 17.1953 83.6367 17.293C83.9453 17.3906 84.1816 17.5117 84.3457 17.6562C84.5137 17.8008 84.6348 17.9707 84.709 18.166C84.7871 18.3613 84.832 18.5801 84.8438 18.8223C84.8594 19.0645 84.8672 19.332 84.8672 19.625C84.8672 20 84.8398 20.3301 84.7852 20.6152C84.7344 20.8965 84.6465 21.1367 84.5215 21.3359C84.3965 21.5352 84.2305 21.6953 84.0234 21.8164C83.8164 21.9336 83.5566 22.0156 83.2441 22.0625C83.5566 22.1094 83.8066 22.1914 83.9941 22.3086C84.1816 22.4258 84.3262 22.5781 84.4277 22.7656C84.5293 22.9531 84.5957 23.1758 84.627 23.4336C84.6621 23.6914 84.6797 23.9844 84.6797 24.3125V26ZM75.4922 21.5H80.7363C81.2363 21.5 81.6562 21.4922 81.9961 21.4766C82.3398 21.457 82.623 21.4238 82.8457 21.377C83.0684 21.3301 83.2402 21.2637 83.3613 21.1777C83.4824 21.0918 83.5703 20.9785 83.625 20.8379C83.6836 20.6973 83.7168 20.5293 83.7246 20.334C83.7363 20.1348 83.7422 19.8984 83.7422 19.625C83.7422 19.3711 83.7363 19.1523 83.7246 18.9688C83.7168 18.7852 83.6836 18.6309 83.625 18.5059C83.5703 18.3809 83.4824 18.2812 83.3613 18.207C83.2402 18.1328 83.0684 18.0762 82.8457 18.0371C82.623 17.9941 82.3398 17.9668 81.9961 17.9551C81.6562 17.9434 81.2363 17.9375 80.7363 17.9375H75.4922V21.5ZM96.498 19.8125C96.498 19.3438 96.4473 18.9727 96.3457 18.6992C96.2441 18.4258 96.0762 18.2188 95.8418 18.0781C95.6074 17.9375 95.2988 17.8477 94.916 17.8086C94.5332 17.7695 94.0605 17.75 93.498 17.75H90.4863C89.9863 17.75 89.5645 17.7656 89.2207 17.7969C88.8809 17.8242 88.5996 17.8828 88.377 17.9727C88.1543 18.0625 87.9824 18.1914 87.8613 18.3594C87.7402 18.5273 87.6523 18.75 87.5977 19.0273C87.543 19.3047 87.5117 19.6465 87.5039 20.0527C87.4961 20.4551 87.4922 20.9375 87.4922 21.5C87.4922 22.0625 87.4961 22.5469 87.5039 22.9531C87.5156 23.3555 87.5488 23.6953 87.6035 23.9727C87.6582 24.25 87.7441 24.4727 87.8613 24.6406C87.9824 24.8086 88.1543 24.9375 88.377 25.0273C88.5996 25.1172 88.8809 25.1777 89.2207 25.209C89.5645 25.2363 89.9863 25.25 90.4863 25.25H93.5039C93.9414 25.25 94.3184 25.2383 94.6348 25.2148C94.9512 25.1914 95.2207 25.1484 95.4434 25.0859C95.666 25.0234 95.8457 24.9375 95.9824 24.8281C96.1191 24.7188 96.2246 24.582 96.2988 24.418C96.377 24.25 96.4297 24.0508 96.457 23.8203C96.4844 23.5859 96.498 23.3125 96.498 23V22.4375H91.9863V21.5H97.623V23C97.623 23.375 97.5996 23.7148 97.5527 24.0195C97.5059 24.3203 97.4219 24.5898 97.3008 24.8281C97.1836 25.0625 97.0254 25.2656 96.8262 25.4375C96.627 25.6094 96.375 25.752 96.0703 25.8652C95.7656 25.9746 95.4023 26.0547 94.9805 26.1055C94.5586 26.1602 94.0664 26.1875 93.5039 26.1875H90.4863C89.7988 26.1875 89.2188 26.1445 88.7461 26.0586C88.2773 25.9766 87.8906 25.8516 87.5859 25.6836C87.2812 25.5117 87.0449 25.2969 86.877 25.0391C86.7129 24.7812 86.5918 24.4785 86.5137 24.1309C86.4395 23.7832 86.3965 23.3906 86.3848 22.9531C86.373 22.5156 86.3672 22.0312 86.3672 21.5C86.3672 20.9688 86.373 20.4844 86.3848 20.0469C86.3965 19.6094 86.4395 19.2168 86.5137 18.8691C86.5918 18.5215 86.7129 18.2188 86.877 17.9609C87.0449 17.7031 87.2812 17.4902 87.5859 17.3223C87.8906 17.1504 88.2773 17.0234 88.7461 16.9414C89.2188 16.8555 89.7988 16.8125 90.4863 16.8125H93.498C94.0605 16.8125 94.5527 16.8398 94.9746 16.8945C95.3965 16.9453 95.7598 17.0254 96.0645 17.1348C96.3691 17.2402 96.6211 17.375 96.8203 17.5391C97.0234 17.7031 97.1836 17.8965 97.3008 18.1191C97.4219 18.3418 97.5059 18.5938 97.5527 18.875C97.5996 19.1562 97.623 19.4688 97.623 19.8125H96.498Z" fill="#22D3EE"/>
</svg>
