<svg width="252" height="39" viewBox="0 0 252 39" fill="none" xmlns="http://www.w3.org/2000/svg">
<path d="M24.0625 12.25C24.8854 12.25 25.5911 12.2839 26.1797 12.3516C26.7682 12.4193 27.263 12.5208 27.6641 12.6562C28.0703 12.7865 28.3932 12.9505 28.6328 13.1484C28.8724 13.3464 29.0573 13.5729 29.1875 13.8281C29.3177 14.0781 29.401 14.3594 29.4375 14.6719C29.4792 14.9844 29.5 15.3229 29.5 15.6875C29.5 16.0521 29.4661 16.3958 29.3984 16.7188C29.3359 17.0365 29.2214 17.3281 29.0547 17.5938C28.888 17.8594 28.6615 18.0964 28.375 18.3047C28.0885 18.513 27.724 18.6901 27.2812 18.8359C26.8385 18.9818 26.3047 19.0911 25.6797 19.1641C25.0599 19.2422 24.3333 19.2812 23.5 19.2812H21.5C20.75 19.2812 20.0938 19.2526 19.5312 19.1953C18.9688 19.138 18.4844 19.0521 18.0781 18.9375C17.6719 18.8177 17.3359 18.6693 17.0703 18.4922C16.8047 18.3099 16.5911 18.099 16.4297 17.8594C16.2734 17.6146 16.1641 17.3385 16.1016 17.0312C16.0391 16.7188 16.0078 16.375 16.0078 16H17.5078C17.5078 16.4688 17.5755 16.8359 17.7109 17.1016C17.8464 17.3672 18.0703 17.5677 18.3828 17.7031C18.6953 17.8333 19.1042 17.9167 19.6094 17.9531C20.1198 17.9844 20.75 18 21.5 18H23.5C24.375 18 25.1016 17.9583 25.6797 17.875C26.2578 17.7917 26.7188 17.6589 27.0625 17.4766C27.4062 17.2943 27.6484 17.0573 27.7891 16.7656C27.9297 16.4688 28 16.1094 28 15.6875C28 15.2656 27.9505 14.9141 27.8516 14.6328C27.7578 14.3516 27.5677 14.1276 27.2812 13.9609C27 13.7943 26.6016 13.6771 26.0859 13.6094C25.5703 13.5365 24.8958 13.5 24.0625 13.5H22C21.0833 13.5 20.2969 13.4661 19.6406 13.3984C18.9896 13.3307 18.4427 13.2344 18 13.1094C17.5573 12.9792 17.2031 12.8203 16.9375 12.6328C16.6719 12.4401 16.4688 12.2214 16.3281 11.9766C16.1927 11.7318 16.1042 11.4609 16.0625 11.1641C16.0208 10.862 16 10.5365 16 10.1875C16 9.82292 16.0312 9.48438 16.0938 9.17188C16.1615 8.85938 16.2839 8.57812 16.4609 8.32812C16.638 8.07292 16.8802 7.84635 17.1875 7.64844C17.4948 7.45052 17.888 7.28646 18.3672 7.15625C18.8516 7.02083 19.4323 6.91927 20.1094 6.85156C20.7865 6.78385 21.5833 6.75 22.5 6.75H24C24.75 6.75 25.4062 6.77865 25.9688 6.83594C26.5312 6.88802 27.0156 6.97396 27.4219 7.09375C27.8281 7.20833 28.1641 7.35417 28.4297 7.53125C28.7005 7.70312 28.9141 7.91146 29.0703 8.15625C29.2318 8.39583 29.3438 8.66927 29.4062 8.97656C29.4688 9.28385 29.5 9.625 29.5 10H28C28 9.53125 27.9323 9.16406 27.7969 8.89844C27.6615 8.63281 27.4375 8.4349 27.125 8.30469C26.8125 8.16927 26.401 8.08594 25.8906 8.05469C25.3802 8.01823 24.75 8 24 8H22.5C21.5 8 20.6771 8.03646 20.0312 8.10938C19.3854 8.17708 18.875 8.29427 18.5 8.46094C18.125 8.6276 17.8646 8.85156 17.7188 9.13281C17.5729 9.41406 17.5 9.76562 17.5 10.1875C17.5 10.4479 17.5182 10.6797 17.5547 10.8828C17.5911 11.0859 17.6641 11.2656 17.7734 11.4219C17.888 11.5729 18.0469 11.7005 18.25 11.8047C18.4531 11.9089 18.7214 11.9948 19.0547 12.0625C19.388 12.1302 19.7943 12.1797 20.2734 12.2109C20.7578 12.237 21.3333 12.25 22 12.25H24.0625ZM43.75 16.25H34.25L32.75 19H31L38 7H40L47 19H45.25L43.75 16.25ZM43 15L39 8L35 15H43ZM50.5 8V19H49V7H51.5L58.4922 17.5L65.4844 7H67.875V19H66.375V8.16406L59.25 19H57.7344L50.5 8ZM84.8828 7V13C84.8828 13.7083 84.8724 14.3542 84.8516 14.9375C84.8359 15.5208 84.776 16.0443 84.6719 16.5078C84.5729 16.9714 84.4141 17.375 84.1953 17.7188C83.9766 18.0625 83.6641 18.349 83.2578 18.5781C82.8516 18.8021 82.3333 18.9688 81.7031 19.0781C81.0781 19.1927 80.3073 19.25 79.3906 19.25H75.875C74.9583 19.25 74.1849 19.1927 73.5547 19.0781C72.9297 18.9688 72.4141 18.8021 72.0078 18.5781C71.6016 18.349 71.2865 18.0625 71.0625 17.7188C70.8438 17.375 70.6823 16.9714 70.5781 16.5078C70.4792 16.0443 70.4219 15.5208 70.4062 14.9375C70.3906 14.3542 70.3828 13.7083 70.3828 13V7H71.8828V13C71.8828 13.75 71.888 14.3958 71.8984 14.9375C71.9141 15.474 71.9583 15.9271 72.0312 16.2969C72.1042 16.6667 72.2188 16.9635 72.375 17.1875C72.5365 17.4115 72.7656 17.5833 73.0625 17.7031C73.3594 17.8229 73.7344 17.9036 74.1875 17.9453C74.6458 17.9818 75.2083 18 75.875 18H79.3906C80.0521 18 80.612 17.9818 81.0703 17.9453C81.5286 17.9036 81.9036 17.8229 82.1953 17.7031C82.4922 17.5833 82.7214 17.4115 82.8828 17.1875C83.0443 16.9635 83.1615 16.6667 83.2344 16.2969C83.3125 15.9271 83.3568 15.474 83.3672 14.9375C83.3776 14.3958 83.3828 13.75 83.3828 13L83.375 7H84.8828ZM87.3906 19V7H99.3906V8.25H88.8906V12.25H98.8906V13.5H88.8906V17.75H99.3906V19H87.3906ZM101.391 19V7H102.891V17.75H112.391V19H101.391Z" fill="#22D3EE"/>
<path d="M9.0625 26.25C9.88542 26.25 10.5911 26.2839 11.1797 26.3516C11.7682 26.4193 12.263 26.5208 12.6641 26.6562C13.0703 26.7865 13.3932 26.9505 13.6328 27.1484C13.8724 27.3464 14.0573 27.5729 14.1875 27.8281C14.3177 28.0781 14.401 28.3594 14.4375 28.6719C14.4792 28.9844 14.5 29.3229 14.5 29.6875C14.5 30.0521 14.4661 30.3958 14.3984 30.7188C14.3359 31.0365 14.2214 31.3281 14.0547 31.5938C13.888 31.8594 13.6615 32.0964 13.375 32.3047C13.0885 32.513 12.724 32.6901 12.2812 32.8359C11.8385 32.9818 11.3047 33.0911 10.6797 33.1641C10.0599 33.2422 9.33333 33.2812 8.5 33.2812H6.5C5.75 33.2812 5.09375 33.2526 4.53125 33.1953C3.96875 33.138 3.48438 33.0521 3.07812 32.9375C2.67188 32.8177 2.33594 32.6693 2.07031 32.4922C1.80469 32.3099 1.59115 32.099 1.42969 31.8594C1.27344 31.6146 1.16406 31.3385 1.10156 31.0312C1.03906 30.7188 1.00781 30.375 1.00781 30H2.50781C2.50781 30.4688 2.57552 30.8359 2.71094 31.1016C2.84635 31.3672 3.07031 31.5677 3.38281 31.7031C3.69531 31.8333 4.10417 31.9167 4.60938 31.9531C5.11979 31.9844 5.75 32 6.5 32H8.5C9.375 32 10.1016 31.9583 10.6797 31.875C11.2578 31.7917 11.7188 31.6589 12.0625 31.4766C12.4062 31.2943 12.6484 31.0573 12.7891 30.7656C12.9297 30.4688 13 30.1094 13 29.6875C13 29.2656 12.9505 28.9141 12.8516 28.6328C12.7578 28.3516 12.5677 28.1276 12.2812 27.9609C12 27.7943 11.6016 27.6771 11.0859 27.6094C10.5703 27.5365 9.89583 27.5 9.0625 27.5H7C6.08333 27.5 5.29688 27.4661 4.64062 27.3984C3.98958 27.3307 3.44271 27.2344 3 27.1094C2.55729 26.9792 2.20312 26.8203 1.9375 26.6328C1.67188 26.4401 1.46875 26.2214 1.32812 25.9766C1.19271 25.7318 1.10417 25.4609 1.0625 25.1641C1.02083 24.862 1 24.5365 1 24.1875C1 23.8229 1.03125 23.4844 1.09375 23.1719C1.16146 22.8594 1.28385 22.5781 1.46094 22.3281C1.63802 22.0729 1.88021 21.8464 2.1875 21.6484C2.49479 21.4505 2.88802 21.2865 3.36719 21.1562C3.85156 21.0208 4.43229 20.9193 5.10938 20.8516C5.78646 20.7839 6.58333 20.75 7.5 20.75H9C9.75 20.75 10.4062 20.7786 10.9688 20.8359C11.5312 20.888 12.0156 20.974 12.4219 21.0938C12.8281 21.2083 13.1641 21.3542 13.4297 21.5312C13.7005 21.7031 13.9141 21.9115 14.0703 22.1562C14.2318 22.3958 14.3438 22.6693 14.4062 22.9766C14.4688 23.2839 14.5 23.625 14.5 24H13C13 23.5312 12.9323 23.1641 12.7969 22.8984C12.6615 22.6328 12.4375 22.4349 12.125 22.3047C11.8125 22.1693 11.401 22.0859 10.8906 22.0547C10.3802 22.0182 9.75 22 9 22H7.5C6.5 22 5.67708 22.0365 5.03125 22.1094C4.38542 22.1771 3.875 22.2943 3.5 22.4609C3.125 22.6276 2.86458 22.8516 2.71875 23.1328C2.57292 23.4141 2.5 23.7656 2.5 24.1875C2.5 24.4479 2.51823 24.6797 2.55469 24.8828C2.59115 25.0859 2.66406 25.2656 2.77344 25.4219C2.88802 25.5729 3.04688 25.7005 3.25 25.8047C3.45312 25.9089 3.72135 25.9948 4.05469 26.0625C4.38802 26.1302 4.79427 26.1797 5.27344 26.2109C5.75781 26.237 6.33333 26.25 7 26.25H9.0625ZM31.0078 21V27C31.0078 27.7083 30.9974 28.3542 30.9766 28.9375C30.9609 29.5208 30.901 30.0443 30.7969 30.5078C30.6979 30.9714 30.5391 31.375 30.3203 31.7188C30.1016 32.0625 29.7891 32.349 29.3828 32.5781C28.9766 32.8021 28.4583 32.9688 27.8281 33.0781C27.2031 33.1927 26.4323 33.25 25.5156 33.25H22C21.0833 33.25 20.3099 33.1927 19.6797 33.0781C19.0547 32.9688 18.5391 32.8021 18.1328 32.5781C17.7266 32.349 17.4115 32.0625 17.1875 31.7188C16.9688 31.375 16.8073 30.9714 16.7031 30.5078C16.6042 30.0443 16.5469 29.5208 16.5312 28.9375C16.5156 28.3542 16.5078 27.7083 16.5078 27V21H18.0078V27C18.0078 27.75 18.013 28.3958 18.0234 28.9375C18.0391 29.474 18.0833 29.9271 18.1562 30.2969C18.2292 30.6667 18.3438 30.9635 18.5 31.1875C18.6615 31.4115 18.8906 31.5833 19.1875 31.7031C19.4844 31.8229 19.8594 31.9036 20.3125 31.9453C20.7708 31.9818 21.3333 32 22 32H25.5156C26.1771 32 26.737 31.9818 27.1953 31.9453C27.6536 31.9036 28.0286 31.8229 28.3203 31.7031C28.6172 31.5833 28.8464 31.4115 29.0078 31.1875C29.1693 30.9635 29.2865 30.6667 29.3594 30.2969C29.4375 29.9271 29.4818 29.474 29.4922 28.9375C29.5026 28.3958 29.5078 27.75 29.5078 27L29.5 21H31.0078ZM35.0156 33H33.5156V21H36.1484L47.1484 31.5V21H48.6484V33H46.6484L35.0156 22.25V33ZM60.6484 31.75C61.3099 31.75 61.8698 31.7318 62.3281 31.6953C62.7865 31.6589 63.1641 31.5859 63.4609 31.4766C63.7578 31.362 63.987 31.1979 64.1484 30.9844C64.3099 30.7708 64.4271 30.4896 64.5 30.1406C64.5781 29.7865 64.6224 29.3542 64.6328 28.8438C64.6484 28.3281 64.6562 27.7135 64.6562 27C64.6562 26.2865 64.6484 25.6745 64.6328 25.1641C64.6224 24.6484 64.5781 24.2161 64.5 23.8672C64.4271 23.513 64.3099 23.2292 64.1484 23.0156C63.987 22.8021 63.7578 22.6406 63.4609 22.5312C63.1641 22.4167 62.7865 22.3411 62.3281 22.3047C61.875 22.2682 61.3151 22.25 60.6484 22.25H53.1562V31.75H60.6484ZM51.6562 33V21H60.6484C61.5651 21 62.3359 21.0547 62.9609 21.1641C63.5911 21.2682 64.1094 21.4297 64.5156 21.6484C64.9271 21.8672 65.2422 22.1406 65.4609 22.4688C65.6849 22.7969 65.8464 23.1849 65.9453 23.6328C66.0495 24.0755 66.1094 24.5781 66.125 25.1406C66.1458 25.6979 66.1562 26.3177 66.1562 27C66.1562 27.6823 66.1458 28.3047 66.125 28.8672C66.1094 29.4245 66.0495 29.9271 65.9453 30.375C65.8464 30.8177 65.6849 31.2031 65.4609 31.5312C65.2422 31.8594 64.9271 32.1328 64.5156 32.3516C64.1094 32.5703 63.5911 32.7344 62.9609 32.8438C62.3359 32.9479 61.5651 33 60.6484 33H51.6562ZM68.6562 33V21H78.6641C79.4141 21 80.0182 21.0625 80.4766 21.1875C80.9349 21.3073 81.2865 21.487 81.5312 21.7266C81.7812 21.9609 81.9479 22.2552 82.0312 22.6094C82.1146 22.9635 82.1562 23.3698 82.1562 23.8281C82.1562 24.1615 82.1276 24.4557 82.0703 24.7109C82.013 24.9661 81.9375 25.1875 81.8438 25.375C81.75 25.5625 81.6432 25.7214 81.5234 25.8516C81.4036 25.9766 81.2812 26.0807 81.1562 26.1641C80.8646 26.362 80.5312 26.474 80.1562 26.5C80.625 26.526 81.0417 26.6406 81.4062 26.8438C81.5625 26.9323 81.7135 27.0443 81.8594 27.1797C82.0104 27.3099 82.1432 27.474 82.2578 27.6719C82.3776 27.8646 82.474 28.0938 82.5469 28.3594C82.6198 28.6198 82.6562 28.9219 82.6562 29.2656C82.6562 29.6823 82.6354 30.0651 82.5938 30.4141C82.5573 30.7578 82.4792 31.0677 82.3594 31.3438C82.2396 31.6198 82.0677 31.862 81.8438 32.0703C81.6198 32.2786 81.3203 32.4531 80.9453 32.5938C80.5755 32.7292 80.1198 32.8307 79.5781 32.8984C79.0417 32.9661 78.3984 33 77.6484 33H68.6562ZM77.1484 31.75C77.7318 31.75 78.237 31.7422 78.6641 31.7266C79.0911 31.7057 79.4531 31.6667 79.75 31.6094C80.0469 31.5469 80.2865 31.4609 80.4688 31.3516C80.651 31.237 80.7917 31.0885 80.8906 30.9062C80.9948 30.7188 81.0651 30.4922 81.1016 30.2266C81.138 29.9609 81.1562 29.6406 81.1562 29.2656C81.1562 28.974 81.138 28.7214 81.1016 28.5078C81.0651 28.2891 80.9948 28.1068 80.8906 27.9609C80.7917 27.8099 80.651 27.6901 80.4688 27.6016C80.2865 27.5078 80.0469 27.4349 79.75 27.3828C79.4531 27.3307 79.0911 27.2969 78.6641 27.2812C78.237 27.2604 77.7318 27.25 77.1484 27.25H70.1562V31.75H77.1484ZM77.1484 26C77.6589 26 78.099 25.9896 78.4688 25.9688C78.8385 25.9479 79.1536 25.9089 79.4141 25.8516C79.6745 25.7943 79.8854 25.7161 80.0469 25.6172C80.2083 25.513 80.3333 25.3802 80.4219 25.2188C80.5156 25.0573 80.5781 24.8646 80.6094 24.6406C80.6406 24.4115 80.6562 24.1406 80.6562 23.8281C80.6562 23.4948 80.6198 23.224 80.5469 23.0156C80.474 22.8073 80.3438 22.6484 80.1562 22.5391C79.9688 22.4245 79.7135 22.349 79.3906 22.3125C79.0729 22.2708 78.6641 22.25 78.1641 22.25H70.1562V26H77.1484ZM85.1562 33V21H97.1562V22.25H86.6562V26.25H96.6562V27.5H86.6562V31.75H97.1562V33H85.1562ZM112.906 33H111.406V30.75C111.406 30.3854 111.398 30.0729 111.383 29.8125C111.372 29.5469 111.328 29.3203 111.25 29.1328C111.177 28.9453 111.06 28.7943 110.898 28.6797C110.737 28.5651 110.508 28.4766 110.211 28.4141C109.914 28.3516 109.536 28.3099 109.078 28.2891C108.625 28.263 108.065 28.25 107.398 28.25H100.656V33H99.1562V21H107.648C108.565 21 109.336 21.0339 109.961 21.1016C110.591 21.1641 111.109 21.2604 111.516 21.3906C111.927 21.5208 112.242 21.6823 112.461 21.875C112.685 22.0677 112.846 22.2943 112.945 22.5547C113.049 22.8151 113.109 23.1068 113.125 23.4297C113.146 23.7526 113.156 24.1094 113.156 24.5C113.156 25 113.12 25.4401 113.047 25.8203C112.979 26.1953 112.862 26.5156 112.695 26.7812C112.529 27.0469 112.307 27.2604 112.031 27.4219C111.755 27.5781 111.409 27.6875 110.992 27.75C111.409 27.8125 111.742 27.9219 111.992 28.0781C112.242 28.2344 112.435 28.4375 112.57 28.6875C112.706 28.9375 112.794 29.2344 112.836 29.5781C112.883 29.9219 112.906 30.3125 112.906 30.75V33ZM100.656 27H107.648C108.315 27 108.875 26.9896 109.328 26.9688C109.786 26.9427 110.164 26.8984 110.461 26.8359C110.758 26.7734 110.987 26.6849 111.148 26.5703C111.31 26.4557 111.427 26.3047 111.5 26.1172C111.578 25.9297 111.622 25.7057 111.633 25.4453C111.648 25.1797 111.656 24.8646 111.656 24.5C111.656 24.1615 111.648 23.8698 111.633 23.625C111.622 23.3802 111.578 23.1745 111.5 23.0078C111.427 22.8411 111.31 22.7083 111.148 22.6094C110.987 22.5104 110.758 22.4349 110.461 22.3828C110.164 22.3255 109.786 22.2891 109.328 22.2734C108.875 22.2578 108.315 22.25 107.648 22.25H100.656V27ZM128.664 24.75C128.664 24.125 128.596 23.6302 128.461 23.2656C128.326 22.901 128.102 22.625 127.789 22.4375C127.477 22.25 127.065 22.1302 126.555 22.0781C126.044 22.026 125.414 22 124.664 22H120.648C119.982 22 119.419 22.0208 118.961 22.0625C118.508 22.099 118.133 22.1771 117.836 22.2969C117.539 22.4167 117.31 22.5885 117.148 22.8125C116.987 23.0365 116.87 23.3333 116.797 23.7031C116.724 24.0729 116.682 24.5286 116.672 25.0703C116.661 25.6068 116.656 26.25 116.656 27C116.656 27.75 116.661 28.3958 116.672 28.9375C116.688 29.474 116.732 29.9271 116.805 30.2969C116.878 30.6667 116.992 30.9635 117.148 31.1875C117.31 31.4115 117.539 31.5833 117.836 31.7031C118.133 31.8229 118.508 31.9036 118.961 31.9453C119.419 31.9818 119.982 32 120.648 32H124.672C125.255 32 125.758 31.9844 126.18 31.9531C126.602 31.9219 126.961 31.8646 127.258 31.7812C127.555 31.6979 127.794 31.5833 127.977 31.4375C128.159 31.2917 128.299 31.1094 128.398 30.8906C128.503 30.6667 128.573 30.401 128.609 30.0938C128.646 29.7812 128.664 29.4167 128.664 29V28.25H122.648V27H130.164V29C130.164 29.5 130.133 29.9531 130.07 30.3594C130.008 30.7604 129.896 31.1198 129.734 31.4375C129.578 31.75 129.367 32.0208 129.102 32.25C128.836 32.4792 128.5 32.6693 128.094 32.8203C127.688 32.9661 127.203 33.0729 126.641 33.1406C126.078 33.2135 125.422 33.25 124.672 33.25H120.648C119.732 33.25 118.958 33.1927 118.328 33.0781C117.703 32.9688 117.188 32.8021 116.781 32.5781C116.375 32.349 116.06 32.0625 115.836 31.7188C115.617 31.375 115.456 30.9714 115.352 30.5078C115.253 30.0443 115.195 29.5208 115.18 28.9375C115.164 28.3542 115.156 27.7083 115.156 27C115.156 26.2917 115.164 25.6458 115.18 25.0625C115.195 24.4792 115.253 23.9557 115.352 23.4922C115.456 23.0286 115.617 22.625 115.836 22.2812C116.06 21.9375 116.375 21.6536 116.781 21.4297C117.188 21.2005 117.703 21.0312 118.328 20.9219C118.958 20.8073 119.732 20.75 120.648 20.75H124.664C125.414 20.75 126.07 20.7865 126.633 20.8594C127.195 20.9271 127.68 21.0339 128.086 21.1797C128.492 21.3203 128.828 21.5 129.094 21.7188C129.365 21.9375 129.578 22.1953 129.734 22.4922C129.896 22.7891 130.008 23.125 130.07 23.5C130.133 23.875 130.164 24.2917 130.164 24.75H128.664Z" fill="#22D3EE"/>
</svg>
